<svg xmlns="http://www.w3.org/2000/svg" width="18.197" height="22.112" viewBox="0 0 18.197 22.112">
  <g id="list" transform="translate(-736 -1411)">
    <path id="ic_content_paste_24px" d="M19.176,2.01H14.95a3.027,3.027,0,0,0-5.7,0H5.022A2.022,2.022,0,0,0,3,4.02V20.1a2.022,2.022,0,0,0,2.022,2.01H19.176A2.022,2.022,0,0,0,21.2,20.1V4.02A2.022,2.022,0,0,0,19.176,2.01Zm-7.077,0a1.005,1.005,0,1,1-1.011,1.005A1.011,1.011,0,0,1,12.1,2.01ZM19.176,20.1H5.022V4.02H7.044V7.036h10.11V4.02h2.022Z" transform="translate(733 1411)" fill="#fff"/>
    <path id="ic_format_list_bulleted_24px" d="M3.429,8.214a.929.929,0,1,0,.929.929A.927.927,0,0,0,3.429,8.214Zm0-3.714a.929.929,0,1,0,.929.929A.927.927,0,0,0,3.429,4.5Zm0,7.428a.929.929,0,1,0,.929.929A.931.931,0,0,0,3.429,11.928Zm1.857,1.548h8.666V12.238H5.286Zm0-3.714h8.666V8.524H5.286Zm0-4.952V6.048h8.666V4.81Z" transform="translate(736.278 1415.62)" fill="#fff"/>
  </g>
</svg>
